<svg xmlns="http://www.w3.org/2000/svg" viewBox="0 0 32 32">
  <defs>
    <linearGradient id="favicon-gradient" x1="0%" y1="0%" x2="100%" y2="100%">
      <stop offset="0%" style="stop-color:hsl(210, 95%, 48%);stop-opacity:1" />
      <stop offset="100%" style="stop-color:hsl(175, 55%, 50%);stop-opacity:1" />
    </linearGradient>
  </defs>

  <!-- Background -->
  <rect width="32" height="32" rx="6" fill="url(#favicon-gradient)"/>

  <!-- Tooth icon - simplified -->
  <path
    d="M16 8C14 8 12.5 9.5 12 11C11.5 12.5 11 14 11 15.5C11 17.5 11.5 19.5 12 21C12.5 22.5 13 23.5 13.5 24.5C14 25 14.5 25.5 15 25.5C15.5 25.5 15.5 25 16 24.5C16.5 24 17 22.5 17.5 21C18 19.5 18.5 18 19 16.5C19.5 15 20 13.5 20 12C20 10.5 19.5 9.5 18.5 9C17.5 8.5 16.5 8 16 8Z"
    fill="white"
    opacity="0.95"
  />

  <!-- Sparkle -->
  <circle cx="21" cy="10" r="1.5" fill="white" opacity="0.8"/>
</svg>
